<svg viewBox="0 0 2499.85 2500" xmlns="http://www.w3.org/2000/svg" data-sanitized-data-name="Layer 1" data-name="Layer 1" id="Layer_1">
  <defs>
    <style>
      .cls-1 {
        fill: #000;
      }

      .cls-1, .cls-2 {
        stroke-width: 0px;
      }

      .cls-2 {
        fill: #fff;
      }
    </style>
  </defs>
  <path d="M1249.9,2500c690.37,0,1249.95-559.53,1249.95-1249.9S1940.27,0,1249.9,0C559.48,0,0,559.63,0,1250.1s559.48,1249.9,1249.9,1249.9" class="cls-1"></path>
  <path d="M778.29,1996.53h87.06V577.23h-87.06v1419.3Z" class="cls-2"></path>
  <path d="M778.29,1996.53h87.06V577.23h-87.06v1419.3ZM421.03,1094.25c1.52-90.46,156.56-93.05,156.56-4.36l1.42,76.91h118.51v-71.03c7.66-237.68-399.62-237.33-396.48-5.89v409.06c-3.15,231.44,404.24,237.27,396.99,0v-85.84h-120.44v91.68c0,88.88-154.79,90.25-156.36,0v-414.89l-.2,4.36M1098.11,1001.76s20.7-30.69,74.93-60.73c68.74-38.1,136.01-.16,126.27-4.36,54.18,23.9,74.68,82.09,78.53,146.97v484.24h76.25v88.88h-196.08l-.12-578.76c0-84.42-142.41-81.78-143.78,3.96l.16-3.95v578.75h-175.94v-89.08l55.8.2v-542.28l-66.21-.41v-88.53h169.7l.46,65.09M1986.33,1496.96c3.75,64.89,24.25,123.13,78.43,147.13-10.15-4.67,26.38,13.55,64.03,13.19,19.78-.51,115.37-.41,115.37-.41v-88.98s-48.2-.61-73.87-.41c-32.62.41-60.78-15.06-63.16-60.93l.33-480.49-.33-.87h115.72v-87.11h-116.08l.66-1.42v-186.34h-121.1v746.64M1768.34,1413.1v91.68c0,88.88-154.84,90.25-156.46,0v-190.85l254.42.16c12.02,0,21.97-9.84,21.97-22.07v-196.23c7.46-237.68-399.57-237.33-396.37-5.89v409.06c-3.19,231.44,404.24,237.27,396.78,0v-85.84h-120.34s0-.01,0-.01ZM1611.88,1089.28c2.08-88.83,156.46-88.07,156.46.61l-.37,133.78-156.11.08v-134.49" class="cls-2"></path>
</svg>