<svg viewBox="0 0 100 21.84" xmlns="http://www.w3.org/2000/svg" data-sanitized-data-name="Layer 2" data-name="Layer 2" id="Layer_2">
  <defs>
    <style>
      .cls-1 {
        fill: #000;
        stroke-width: 0px;
      }
    </style>
  </defs>
  <g id="svg4">
    <path d="M0,16.08c0,1.06.86,1.92,1.98,1.92h7.92v-1.99H1.98v-1.99h7.79c1.06,0,2.11-.86,2.11-1.92v.07-3.91c0-1.06-.99-2.12-2.11-2.12H1.98c-1.06,0-1.98,1.06-1.98,2.12v7.83ZM9.96,11.88H1.92v-3.83h8.05v3.83ZM36.4,6.13h-7.85c-1.06,0-2.11,1.05-2.11,2.09v7.79-.07c0,1.05,1.06,1.96,2.11,1.96h7.79v1.96h-7.92v1.96h7.98c1.06,0,1.91-.92,1.91-1.96v-11.65c0-1.05-.86-2.09-1.91-2.09ZM36.4,16.09h-8.05v-8.05h8.05v8.05ZM20.95,6.13h-5.87c-1.06,0-2.05,1.06-2.05,2.11v9.77h1.98v-9.9h5.94c1.06,0,1.98.99,1.98,2.11v7.79h1.98v-7.79c0-2.18-1.78-4.09-3.96-4.09ZM49.36,16.03h-7.92v-5.87c0-1.06,1.06-2.11,2.18-2.11h5.74v9.9h1.98v-9.7c0-1.06-.79-2.11-1.85-2.11h-5.87c-2.18,0-4.16,1.91-4.16,4.09v5.87c0,1.06,1.12,1.91,2.18,1.91h3.43c1.78,0,3.63-.73,4.29-1.98v1.98-1.98ZM93.97,0h-2.01v18.01h2.01v-10h6.03v-2h-6.03V0ZM66.28,16.01c0,1.05.59,1.9,1.63,1.9h7.52v1.96h-7.19v1.96h7.45c1.05,0,1.7-.92,1.7-2.03v.07-11.65c0-1.05-.65-2.09-1.7-2.09h-7.78c-1.05,0-1.63,1.05-1.63,2.09v7.79ZM75.86,16.09h-7.28v-8.05h7.28v8.05ZM62.39,6h-7.65c-1.06,0-2.24,1.07-2.24,2.13v7.94-.07c0,1.07,1.19,2,2.24,2h9.63V0h-1.98v6ZM62.84,16.09h-8.05v-8.05h8.05v8.05ZM78.93,16.08c0,1.06,1.12,1.92,2.18,1.92h7.72v-1.99h-7.92v-1.99h8.05c1.06,0,1.85-.86,1.85-1.92v.07-3.91c0-1.06-.79-2.12-1.85-2.12h-7.85c-1.06,0-2.18,1.06-2.18,2.12v7.83ZM88.89,11.88h-8.05v-3.83h8.05v3.83Z" class="cls-1" id="path2"></path>
  </g>
</svg>