<svg xmlns="http://www.w3.org/2000/svg" fill="none" viewBox="0 0 59 24" height="24" width="59">
<path fill="black" d="M21.1219 7.39904V14.2347H22.6943H24.2667V11.6056C24.2667 9.8704 24.2667 8.92392 24.2667 8.81875C24.3159 8.55584 24.365 8.29293 24.5124 8.0826C24.709 7.71453 25.053 7.55678 25.4461 7.60937C25.9866 7.66195 26.3306 7.97744 26.4288 8.66101C26.4288 8.76617 26.4288 9.81781 26.4288 11.5004V14.1821H28.0013H29.5737V11.0272C29.5737 8.34552 29.5737 7.81969 29.5246 7.55678C29.4263 6.6103 29.1315 5.87415 28.5909 5.34833C28.1487 4.87509 27.6082 4.61218 26.9694 4.50702C26.7237 4.45443 26.0357 4.50702 25.8392 4.5596C25.2495 4.71734 24.8073 4.92767 24.4142 5.40091L24.1685 5.61124V3.0873V0.563354H22.596H21.0236V7.39904H21.1219ZM54.536 0.668519C54.4378 0.878848 51.2438 9.13425 51.2438 9.13425C51.2438 9.13425 52.0791 9.13425 53.111 9.13425H54.9783L56.649 4.87509C57.5826 2.50889 58.3197 0.563354 58.3197 0.563354C58.3197 0.563354 57.4844 0.563354 56.4524 0.563354H54.5852L54.536 0.668519ZM14.2425 4.5596C13.5546 4.66476 13.014 4.87509 12.4735 5.24317C11.3925 5.97932 10.7045 7.24129 10.508 8.71359C10.4097 9.39716 10.4588 10.2385 10.6062 10.8695C10.9994 12.4995 12.0313 13.7615 13.358 14.2347C13.8494 14.3925 14.0459 14.445 14.6356 14.445C15.0778 14.445 15.2253 14.445 15.3727 14.3925C16.0115 14.2347 16.4537 13.9718 16.8468 13.5511L17.0434 13.3408V13.7615V14.1821H18.5667H20.09V9.44974V4.71735H18.5667H17.0434V5.138V5.55866L16.896 5.40091C16.552 4.98026 16.0606 4.71734 15.4218 4.5596C15.2253 4.50702 15.127 4.50702 14.7339 4.50702C14.4882 4.5596 14.2916 4.5596 14.2425 4.5596ZM34.291 4.5596C33.4556 4.66476 32.5711 5.08542 31.9323 5.61124C30.7039 6.71547 30.0651 8.45068 30.3108 10.2385C30.5565 12.2366 31.8832 13.7615 33.7505 14.2873C34.1436 14.3925 34.5367 14.445 35.0281 14.445C35.9126 14.445 36.5514 14.2873 37.2393 13.9192C38.6152 13.1831 39.4997 11.8685 39.6962 10.2385C39.7454 9.81782 39.7454 9.13425 39.6962 8.76617C39.5979 7.97744 39.3031 7.18871 38.8609 6.55772C38.6643 6.29481 38.2712 5.82157 38.0255 5.61124C37.3376 5.03284 36.5514 4.66476 35.6669 4.5596C35.3229 4.50702 34.635 4.50702 34.291 4.5596ZM44.3152 4.5596C43.4799 4.66476 42.6445 5.03284 42.0057 5.61124C41.76 5.82157 41.3178 6.29481 41.1704 6.55772C40.7281 7.18871 40.4824 7.97744 40.335 8.76617C40.2859 9.13425 40.2859 9.8704 40.335 10.2385C40.6299 12.3418 42.0549 13.9718 44.0204 14.3925C44.4135 14.4976 44.6101 14.4976 45.0523 14.4976C45.8877 14.4976 46.6248 14.3399 47.3127 13.9192C49.1308 12.9202 50.1136 10.7117 49.6713 8.45068C49.2782 6.34739 47.7058 4.82251 45.6911 4.5596C45.3472 4.50702 44.6592 4.50702 44.3152 4.5596ZM0.336304 4.76993C0.336304 4.76993 1.17166 6.9258 2.20357 9.5549C3.23547 12.184 4.07083 14.3399 4.07083 14.3399C4.07083 14.3399 3.776 15.1286 3.38289 16.0751C2.98978 17.0216 2.69495 17.7577 2.69495 17.8103C2.69495 17.8629 3.43203 17.8103 4.36566 17.8103H6.03637L8.54243 11.3427C9.91831 7.76711 11.0485 4.87509 11.0485 4.82251C11.0485 4.82251 10.7045 4.76993 9.37778 4.82251H7.70708L6.67517 7.55678C6.23292 9.02908 5.79068 10.2911 5.79068 10.2911C5.79068 10.2911 5.34843 9.02908 4.75877 7.55678L3.776 4.82251H2.05615C1.12252 4.76993 0.336304 4.76993 0.336304 4.76993ZM15.7658 7.60937C16.4046 7.76711 16.896 8.29293 17.0925 8.9765C17.1417 9.23941 17.1417 9.71265 17.0925 9.97556C16.9451 10.6591 16.4537 11.185 15.8149 11.3427C15.5692 11.3953 15.127 11.3953 14.8813 11.3427C14.3408 11.185 13.8494 10.7643 13.6528 10.2385C13.4071 9.66007 13.5054 8.92392 13.8002 8.3981C14.2425 7.71453 14.9796 7.45162 15.7658 7.60937ZM35.372 7.66195C36.06 7.76711 36.6005 8.34551 36.7479 9.08167C36.7971 9.34458 36.7971 9.76523 36.7479 10.0281C36.6005 10.7117 36.1091 11.185 35.5195 11.3953C35.3229 11.4479 34.7824 11.4479 34.5858 11.3953C34.0944 11.2375 33.7013 10.8695 33.4556 10.3962C33.3082 10.0807 33.3082 9.92298 33.3082 9.5549C33.3082 9.23941 33.3574 9.08167 33.4556 8.81875C33.6031 8.50326 33.7996 8.18777 34.0944 7.97744C34.3893 7.66195 34.8807 7.55678 35.372 7.66195ZM45.3472 7.66195C45.9368 7.76711 46.4282 8.18777 46.6248 8.76617C46.723 9.02908 46.7722 9.18683 46.7722 9.50232C46.7722 9.8704 46.723 10.0281 46.6248 10.3436C46.4282 10.8169 45.986 11.185 45.4946 11.3427C45.298 11.3953 44.7575 11.3953 44.5609 11.3427C43.9713 11.185 43.4799 10.6591 43.3325 9.97556C43.2833 9.71265 43.2833 9.23941 43.3325 8.9765C43.529 8.13519 44.217 7.55678 45.0032 7.55678C45.1015 7.60936 45.2489 7.60936 45.3472 7.66195ZM52.03 9.97556C51.0964 10.0807 50.4084 10.8169 50.2119 11.7634C50.1627 12.0263 50.1627 12.4995 50.2119 12.7624C50.4084 13.6037 50.9981 14.1821 51.7843 14.3925C51.8826 14.3925 52.0791 14.445 52.2265 14.445C52.8162 14.445 53.3076 14.2347 53.7007 13.8141C54.1429 13.3408 54.2904 12.8676 54.2904 12.2366C54.2904 11.4479 53.9464 10.7643 53.3567 10.3962C52.9636 10.0281 52.4231 9.92298 52.03 9.97556ZM26.134 15.1286C25.4952 15.3389 25.2004 16.1277 25.5443 16.7061C25.6426 16.8638 25.8392 17.0742 25.9866 17.1267C26.134 17.1793 26.134 17.1793 26.4288 17.1793C26.6745 17.1793 26.7237 17.1793 26.8711 17.1267C27.0676 17.0216 27.2642 16.8112 27.3625 16.6009C27.6082 16.0751 27.3625 15.4441 26.8711 15.1812C26.7237 15.076 26.6745 15.076 26.478 15.076C26.2814 15.076 26.2323 15.076 26.134 15.1286ZM23.4805 15.1812C22.6452 15.3389 22.1047 15.9173 21.859 16.8638C21.8098 17.0216 21.8098 17.1793 21.8098 17.3896V17.7577H21.4659H21.1219V18.5465V19.3352H21.4659H21.8098V21.2281V23.1211H22.7435H23.6771V21.2281V19.3352H24.3159H24.9547V18.5465V17.7577H24.3159H23.6771V17.6C23.7262 17.2319 23.8736 16.969 24.1685 16.9164C24.365 16.8638 24.6599 16.8638 24.8564 16.969C24.9547 17.0216 25.0038 17.0216 25.0038 17.0216C25.0038 17.0216 25.0038 16.6535 25.0038 16.1803V15.3389L24.8564 15.2864C24.6599 15.1812 24.4142 15.1812 24.0702 15.1812C23.8245 15.1286 23.6279 15.1812 23.4805 15.1812ZM30.9496 17.6526C30.5565 17.7577 30.2616 17.968 30.0651 18.231L29.9668 18.3887V18.0732V17.7577H29.0332H28.0995V20.4394V23.1211H29.0332H29.9668V21.6488C29.9668 20.8075 29.9668 20.1239 29.9668 20.0188C30.0159 19.8084 30.1142 19.5981 30.2125 19.4929C30.4582 19.2826 30.9004 19.3352 31.097 19.5981C31.2444 19.8084 31.2444 19.8084 31.2444 21.4911V23.0685H32.178H33.1117V21.2807C33.1117 19.3878 33.1117 19.1774 33.0134 18.8094C32.9151 18.4939 32.8168 18.231 32.5711 18.0206C32.3746 17.8103 32.178 17.6526 31.8832 17.6C31.6375 17.6 31.1461 17.6 30.9496 17.6526ZM35.6177 17.6C35.3229 17.6526 34.8807 17.8103 34.635 18.0206C34.0944 18.4413 33.7505 19.0723 33.6031 19.861C33.5539 20.1765 33.5539 20.7549 33.6031 21.0704C33.7013 21.5436 33.8487 22.0169 34.0944 22.3324C34.4384 22.8056 34.8807 23.1211 35.4212 23.2263C35.716 23.2788 36.2074 23.2788 36.4531 23.1737C36.7479 23.0685 36.9445 22.9634 37.1902 22.753L37.3867 22.5427V22.8056V23.0685H38.3204H39.254V20.3868V17.7051H38.3204H37.3867V17.968V18.231L37.2393 18.1784C36.9936 17.9155 36.6496 17.7051 36.2565 17.6526C36.1091 17.6 35.7651 17.6 35.6177 17.6ZM42.7428 17.6526C42.3988 17.7051 42.0549 17.968 41.8583 18.231L41.76 18.3361V18.0206V17.7051H40.8264H39.8928V20.3868V23.0685H40.8264H41.76V21.5436C41.76 19.9136 41.76 19.9136 41.8583 19.6507C41.9566 19.4404 42.1532 19.3352 42.3497 19.3352C42.5463 19.3352 42.6445 19.3878 42.792 19.4929C42.9885 19.7033 42.9885 19.6507 42.9885 21.4385V23.0159H43.9221H44.8558V21.0704C44.8558 19.1249 44.8558 19.1249 44.8066 18.9145C44.7575 18.8094 44.7084 18.599 44.6592 18.4413C44.5609 18.231 44.5118 18.1784 44.3644 18.0206C44.1678 17.8103 44.0204 17.7051 43.8239 17.6C43.4799 17.6 43.0868 17.5474 42.7428 17.6526ZM47.6075 17.6526C46.7722 17.8103 46.1334 18.231 45.7403 18.9671C45.642 19.1774 45.5437 19.4404 45.4454 19.7033C45.3963 19.9662 45.3963 20.0188 45.3963 20.4394C45.3963 20.9127 45.3963 21.0704 45.5437 21.4385C45.8385 22.3324 46.5265 23.0159 47.4601 23.2263C47.6075 23.2788 47.7549 23.2788 48.0989 23.2788C48.5903 23.2788 48.7868 23.2263 49.1308 23.0685L49.3274 22.9634V22.0695V21.1756L49.18 21.2807C48.9343 21.4385 48.7868 21.4911 48.492 21.4911C48.1972 21.4911 48.0498 21.4911 47.8532 21.3859C47.6567 21.2807 47.5092 21.123 47.411 20.9126C47.3618 20.7549 47.3618 20.7549 47.3618 20.492C47.3618 20.2817 47.3618 20.2291 47.411 20.0713C47.5584 19.6507 47.9024 19.4404 48.3937 19.3878C48.7377 19.3878 48.8851 19.3878 49.3765 19.6507C49.3765 19.6507 49.3765 19.23 49.3765 18.7568V17.8629L49.2291 17.8103C48.6886 17.6 48.0989 17.5474 47.6075 17.6526ZM51.8334 17.6526C50.4084 17.9155 49.5239 19.23 49.6222 20.7549C49.6713 21.2807 49.8188 21.754 50.0644 22.122C50.4084 22.7004 50.9489 23.0685 51.6369 23.2263C51.9317 23.2788 52.7179 23.2788 53.0619 23.2263C53.5533 23.1211 53.9955 22.8582 54.3395 22.4901C54.4869 22.3324 54.7326 21.9643 54.7326 21.9643C54.7326 21.9643 54.3886 21.8065 53.9464 21.6488L53.1602 21.3333L53.0619 21.4385C52.9145 21.5962 52.8162 21.6488 52.6196 21.7014C52.0791 21.8591 51.5386 21.5436 51.4403 21.0178V20.9126H53.1602H54.88V20.4394C54.88 20.1239 54.88 19.9136 54.8309 19.8084C54.7326 19.1774 54.4869 18.7568 54.1429 18.3361C53.799 17.9681 53.4059 17.7577 52.8653 17.6526C52.6688 17.6 52.0791 17.6 51.8334 17.6526ZM25.4952 20.4394V23.1211H26.4288H27.3625V20.4394V17.7577H26.4288H25.4952V20.4394ZM52.5705 19.1249C52.7179 19.1774 52.7671 19.23 52.9145 19.3352C53.0128 19.4403 53.111 19.5455 53.111 19.7033V19.8084H52.2757C51.342 19.8084 51.3912 19.8084 51.4895 19.5981C51.6369 19.23 52.0791 19.0197 52.5705 19.1249ZM36.6988 19.3878C36.9445 19.4404 37.2393 19.7033 37.3376 19.9662C37.5833 20.5446 37.3376 21.2281 36.7479 21.4385C36.5514 21.4911 36.2565 21.4911 36.06 21.4385C35.7651 21.3333 35.4703 21.0704 35.4212 20.7549C35.372 20.5972 35.372 20.5446 35.372 20.3868C35.372 20.1765 35.372 20.1239 35.4703 19.9662C35.6669 19.4929 36.1583 19.2826 36.6988 19.3878Z" clip-rule="evenodd" fill-rule="evenodd"></path>
</svg>
